<?xml version="1.0" encoding="UTF-8" standalone="no"?>
<!DOCTYPE svg PUBLIC "-//W3C//DTD SVG 1.1//EN" "http://www.w3.org/Graphics/SVG/1.1/DTD/svg11.dtd">
<!-- Generated by Microsoft Visio, SVG Export FPU-state.svg Page-1 -->
<svg xmlns="http://www.w3.org/2000/svg" xmlns:xlink="http://www.w3.org/1999/xlink" xmlns:ev="http://www.w3.org/2001/xml-events"
		xmlns:v="http://schemas.microsoft.com/visio/2003/SVGExtensions/" width="8.26772in" height="11.6929in"
		viewBox="0 0 595.276 841.89" xml:space="preserve" color-interpolation-filters="sRGB" class="st18">
	<v:documentProperties v:langID="2057" v:metric="true" v:viewMarkup="false">
		<v:userDefs>
			<v:ud v:nameU="msvNoAutoConnect" v:val="VT0(1):26"/>
		</v:userDefs>
	</v:documentProperties>

	<style type="text/css">
	<![CDATA[
		.st1 {fill:#ffffff;stroke:#000000;stroke-linecap:round;stroke-linejoin:round;stroke-width:0.24}
		.st2 {fill:#000000;font-family:Calibri;font-size:0.666664em}
		.st3 {marker-end:url(#mrkr13-24);stroke:#000000;stroke-linecap:round;stroke-linejoin:round;stroke-width:0.75}
		.st4 {fill:#000000;fill-opacity:1;stroke:#000000;stroke-opacity:1;stroke-width:0.22935779816514}
		.st5 {marker-end:url(#mrkr13-30);stroke:#000000;stroke-linecap:round;stroke-linejoin:round;stroke-width:1.5}
		.st6 {fill:#000000;fill-opacity:1;stroke:#000000;stroke-opacity:1;stroke-width:0.37313432835821}
		.st7 {fill:none;stroke:none;stroke-linecap:round;stroke-linejoin:round;stroke-width:0.75}
		.st8 {fill:#000000;font-family:Calibri;font-size:1.00001em;font-style:italic}
		.st9 {font-size:1em;font-style:normal}
		.st10 {marker-end:url(#mrkr13-61);stroke:#000000;stroke-linecap:round;stroke-linejoin:round;stroke-width:1.5}
		.st11 {marker-end:url(#mrkr13-24);stroke:#000000;stroke-dasharray:2.25,2.25;stroke-linecap:round;stroke-linejoin:round;stroke-width:0.75}
		.st12 {fill:#000000;font-family:Calibri;font-size:1.00001em}
		.st13 {marker-start:url(#mrkr13-109);stroke:#000000;stroke-dasharray:2.25,2.25;stroke-linecap:round;stroke-linejoin:round;stroke-width:0.75}
		.st14 {stroke:#000000;stroke-dasharray:2.25,2.25;stroke-linecap:round;stroke-linejoin:round;stroke-width:0.75}
		.st15 {font-size:1em}
		.st16 {marker-end:url(#mrkr13-178);stroke:#000000;stroke-dasharray:2.25,2.25;stroke-linecap:round;stroke-linejoin:round;stroke-width:0.75}
		.st17 {fill:#000000;font-family:Calibri;font-size:1.00001em;font-weight:bold}
		.st18 {fill:none;fill-rule:evenodd;font-size:12px;overflow:visible;stroke-linecap:square;stroke-miterlimit:3}
	]]>
	</style>

	<defs id="Markers">
		<g id="lend13">
			<path d="M 3 1 L 0 0 L 3 -1 L 3 1 " style="stroke:none"/>
		</g>
		<marker id="mrkr13-24" class="st4" v:arrowType="13" v:arrowSize="2" v:setback="13.08" refX="-13.08" orient="auto"
				markerUnits="strokeWidth" overflow="visible">
			<use xlink:href="#lend13" transform="scale(-4.36,-4.36) "/>
		</marker>
		<marker id="mrkr13-30" class="st6" v:arrowType="13" v:arrowSize="2" v:setback="8.04" refX="-8.04" orient="auto"
				markerUnits="strokeWidth" overflow="visible">
			<use xlink:href="#lend13" transform="scale(-2.68,-2.68) "/>
		</marker>
		<marker id="mrkr13-61" class="st6" v:arrowType="13" v:arrowSize="2" v:setback="7.8" refX="-7.8" orient="auto"
				markerUnits="strokeWidth" overflow="visible">
			<use xlink:href="#lend13" transform="scale(-2.68,-2.68) "/>
		</marker>
		<marker id="mrkr13-109" class="st4" v:arrowType="13" v:arrowSize="2" v:setback="12.6" refX="12.6" orient="auto"
				markerUnits="strokeWidth" overflow="visible">
			<use xlink:href="#lend13" transform="scale(4.36) "/>
		</marker>
		<marker id="mrkr13-178" class="st4" v:arrowType="13" v:arrowSize="2" v:setback="12.6" refX="-12.6" orient="auto"
				markerUnits="strokeWidth" overflow="visible">
			<use xlink:href="#lend13" transform="scale(-4.36,-4.36) "/>
		</marker>
	</defs>
	<g v:mID="0" v:index="1" v:groupContext="foregroundPage">
		<title>Page-1</title>
		<v:pageProperties v:drawingScale="0.0393701" v:pageScale="0.0393701" v:drawingUnits="24" v:shadowOffsetX="8.50394"
				v:shadowOffsetY="-8.50394"/>
		<v:layer v:name="Flowchart" v:index="0"/>
		<v:layer v:name="Connector" v:index="1"/>
		<g id="shape9-1" v:mID="9" v:groupContext="shape" v:layerMember="0" transform="translate(300.292,-680.315)">
			<title>Process (circle)</title>
			<desc>UNINITIALISED</desc>
			<v:custProps>
				<v:cp v:nameU="Cost" v:lbl="Cost" v:type="7" v:format="@" v:langID="1033"/>
				<v:cp v:nameU="Duration" v:lbl="Duration" v:type="2" v:langID="1033"/>
				<v:cp v:nameU="Resources" v:lbl="Resources" v:langID="1033"/>
			</v:custProps>
			<v:userDefs>
				<v:ud v:nameU="visVersion" v:val="VT0(15):26"/>
			</v:userDefs>
			<v:textBlock v:margins="rect(2,2,2,2)" v:tabSpace="42.5197"/>
			<v:textRect cx="35.4331" cy="806.457" width="70.87" height="70.8661"/>
			<path d="M0 806.46 A35.4331 35.4331 0 0 1 70.87 806.46 A35.4331 35.4331 0 1 1 0 806.46 Z" class="st1"/>
			<text x="11.47" y="808.86" class="st2" v:langID="2057"><v:paragraph v:horizAlign="1"/><v:tabList/>UNINITIALISED</text>		</g>
		<g id="shape12-4" v:mID="12" v:groupContext="shape" v:layerMember="0" transform="translate(136.644,-575.433)">
			<title>Process (circle).12</title>
			<desc>AT_DATUM</desc>
			<v:custProps>
				<v:cp v:nameU="Cost" v:lbl="Cost" v:type="7" v:format="@" v:langID="1033"/>
				<v:cp v:nameU="Duration" v:lbl="Duration" v:type="2" v:langID="1033"/>
				<v:cp v:nameU="Resources" v:lbl="Resources" v:langID="1033"/>
			</v:custProps>
			<v:userDefs>
				<v:ud v:nameU="visVersion" v:val="VT0(15):26"/>
			</v:userDefs>
			<v:textBlock v:margins="rect(2,2,2,2)" v:tabSpace="42.5197"/>
			<v:textRect cx="35.4331" cy="806.457" width="70.87" height="70.8661"/>
			<path d="M0 806.46 A35.4331 35.4331 0 0 1 70.87 806.46 A35.4331 35.4331 0 1 1 0 806.46 Z" class="st1"/>
			<text x="16.47" y="808.86" class="st2" v:langID="2057"><v:paragraph v:horizAlign="1"/><v:tabList/>AT_DATUM</text>		</g>
		<g id="shape14-7" v:mID="14" v:groupContext="shape" v:layerMember="0" transform="translate(114.623,-463.307)">
			<title>Process (circle).14</title>
			<desc>LOADING</desc>
			<v:custProps>
				<v:cp v:nameU="Cost" v:lbl="Cost" v:type="7" v:format="@" v:langID="1033"/>
				<v:cp v:nameU="Duration" v:lbl="Duration" v:type="2" v:langID="1033"/>
				<v:cp v:nameU="Resources" v:lbl="Resources" v:langID="1033"/>
			</v:custProps>
			<v:userDefs>
				<v:ud v:nameU="visVersion" v:val="VT0(15):26"/>
			</v:userDefs>
			<v:textBlock v:margins="rect(2,2,2,2)" v:tabSpace="42.5197"/>
			<v:textRect cx="35.4331" cy="806.457" width="70.87" height="70.8661"/>
			<path d="M0 806.46 A35.4331 35.4331 0 0 1 70.87 806.46 A35.4331 35.4331 0 1 1 0 806.46 Z" class="st1"/>
			<text x="20.21" y="808.86" class="st2" v:langID="2057"><v:paragraph v:horizAlign="1"/><v:tabList/>LOADING</text>		</g>
		<g id="shape15-10" v:mID="15" v:groupContext="shape" v:layerMember="0" transform="translate(135.883,-325.984)">
			<title>Process (circle).15</title>
			<desc>READY*</desc>
			<v:custProps>
				<v:cp v:nameU="Cost" v:lbl="Cost" v:type="7" v:format="@" v:langID="1033"/>
				<v:cp v:nameU="Duration" v:lbl="Duration" v:type="2" v:langID="1033"/>
				<v:cp v:nameU="Resources" v:lbl="Resources" v:langID="1033"/>
			</v:custProps>
			<v:userDefs>
				<v:ud v:nameU="visVersion" v:val="VT0(15):26"/>
			</v:userDefs>
			<v:textBlock v:margins="rect(2,2,2,2)" v:tabSpace="42.5197"/>
			<v:textRect cx="35.4331" cy="806.457" width="70.87" height="70.8661"/>
			<path d="M0 806.46 A35.4331 35.4331 0 0 1 70.87 806.46 A35.4331 35.4331 0 1 1 0 806.46 Z" class="st1"/>
			<text x="22.59" y="808.86" class="st2" v:langID="2057"><v:paragraph v:horizAlign="1"/><v:tabList/>READY*</text>		</g>
		<g id="shape16-13" v:mID="16" v:groupContext="shape" v:layerMember="0" transform="translate(256.355,-231.969)">
			<title>Process (circle).16</title>
			<desc>MOVING</desc>
			<v:custProps>
				<v:cp v:nameU="Cost" v:lbl="Cost" v:type="7" v:format="@" v:langID="1033"/>
				<v:cp v:nameU="Duration" v:lbl="Duration" v:type="2" v:langID="1033"/>
				<v:cp v:nameU="Resources" v:lbl="Resources" v:langID="1033"/>
			</v:custProps>
			<v:userDefs>
				<v:ud v:nameU="visVersion" v:val="VT0(15):26"/>
			</v:userDefs>
			<v:textBlock v:margins="rect(2,2,2,2)" v:tabSpace="42.5197"/>
			<v:textRect cx="35.4331" cy="806.457" width="70.87" height="70.8661"/>
			<path d="M0 806.46 A35.4331 35.4331 0 0 1 70.87 806.46 A35.4331 35.4331 0 1 1 0 806.46 Z" class="st1"/>
			<text x="20.98" y="808.86" class="st2" v:langID="2057"><v:paragraph v:horizAlign="1"/><v:tabList/>MOVING</text>		</g>
		<g id="shape17-16" v:mID="17" v:groupContext="shape" v:layerMember="0" transform="translate(254.402,-70.8661)">
			<title>Process (circle).17</title>
			<desc>OBSTACLE_ERROR</desc>
			<v:custProps>
				<v:cp v:nameU="Cost" v:lbl="Cost" v:type="7" v:format="@" v:langID="1033"/>
				<v:cp v:nameU="Duration" v:lbl="Duration" v:type="2" v:langID="1033"/>
				<v:cp v:nameU="Resources" v:lbl="Resources" v:langID="1033"/>
			</v:custProps>
			<v:userDefs>
				<v:ud v:nameU="visVersion" v:val="VT0(15):26"/>
			</v:userDefs>
			<v:textBlock v:margins="rect(2,2,2,2)" v:tabSpace="42.5197"/>
			<v:textRect cx="35.4331" cy="806.457" width="70.87" height="70.8661"/>
			<path d="M0 806.46 A35.4331 35.4331 0 0 1 70.87 806.46 A35.4331 35.4331 0 1 1 0 806.46 Z" class="st1"/>
			<text x="5.63" y="808.86" class="st2" v:langID="2057"><v:paragraph v:horizAlign="1"/><v:tabList/>OBSTACLE_ERROR</text>		</g>
		<g id="shape20-19" v:mID="20" v:groupContext="shape" transform="translate(314.711,967.908) rotate(179.019)">
			<title>Sheet.20</title>
			<path d="M0 841.89 L72.94 841.89" class="st3"/>
		</g>
		<g id="shape24-25" v:mID="24" v:groupContext="shape" transform="translate(956.97,551.963) rotate(109.872)">
			<title>Sheet.24</title>
			<path d="M0 841.89 L32.53 841.89" class="st5"/>
		</g>
		<g id="shape27-31" v:mID="27" v:groupContext="shape" transform="translate(146.686,-532.126)">
			<title>Sheet.27</title>
			<desc>configMotion “First” flag set</desc>
			<v:textBlock v:margins="rect(4,4,4,4)" v:tabSpace="42.5197"/>
			<v:textRect cx="53.3228" cy="821.26" width="106.65" height="41.2598"/>
			<rect x="0" y="800.63" width="106.646" height="41.2598" class="st7"/>
			<text x="20.61" y="817.66" class="st8" v:langID="2057"><v:paragraph v:horizAlign="1"/><v:tabList/>configMotion<v:newlineChar/><tspan
						x="18.76" dy="1.2em" class="st9">“</tspan><tspan class="st9">First</tspan><tspan class="st9">” </tspan><tspan
						class="st9">flag set</tspan></text>		</g>
		<g id="shape30-38" v:mID="30" v:groupContext="shape" transform="translate(205.599,-680.315)">
			<title>Sheet.30</title>
			<desc>findDatum</desc>
			<v:textBlock v:margins="rect(4,4,4,4)" v:tabSpace="42.5197"/>
			<v:textRect cx="53.3228" cy="821.26" width="106.65" height="41.2598"/>
			<rect x="0" y="800.63" width="106.646" height="41.2598" class="st7"/>
			<text x="27.33" y="824.86" class="st8" v:langID="2057"><v:paragraph v:horizAlign="1"/><v:tabList/>findDatum</text>		</g>
		<g id="shape32-41" v:mID="32" v:groupContext="shape" transform="translate(973.515,203.386) rotate(77.989)">
			<title>Sheet.32</title>
			<path d="M0 841.89 L56.59 841.89" class="st5"/>
		</g>
		<g id="shape33-46" v:mID="33" v:groupContext="shape" transform="translate(146.686,-412.283)">
			<title>Sheet.33</title>
			<desc>configMotion “Last” flag set</desc>
			<v:textBlock v:margins="rect(4,4,4,4)" v:tabSpace="42.5197"/>
			<v:textRect cx="53.3228" cy="821.26" width="106.65" height="41.2598"/>
			<rect x="0" y="800.63" width="106.646" height="41.2598" class="st7"/>
			<text x="20.61" y="817.66" class="st8" v:langID="2057"><v:paragraph v:horizAlign="1"/><v:tabList/>configMotion<v:newlineChar/><tspan
						x="19.59" dy="1.2em" class="st9">“</tspan><tspan class="st9">Last</tspan><tspan class="st9">” </tspan><tspan
						class="st9">flag set</tspan></text>		</g>
		<g id="shape35-53" v:mID="35" v:groupContext="shape" transform="translate(185.142,-277.008)">
			<title>Sheet.35</title>
			<desc>executeMotion</desc>
			<v:textBlock v:margins="rect(4,4,4,4)" v:tabSpace="42.5197"/>
			<v:textRect cx="53.3228" cy="821.26" width="106.65" height="41.2598"/>
			<rect x="0" y="800.63" width="106.646" height="41.2598" class="st7"/>
			<text x="16.78" y="824.86" class="st8" v:langID="2057"><v:paragraph v:horizAlign="1"/><v:tabList/>executeMotion</text>		</g>
		<g id="shape36-56" v:mID="36" v:groupContext="shape" transform="translate(640.152,-164.663) rotate(34.5625)">
			<title>Sheet.36</title>
			<path d="M0 826.43 A74.3071 51.8812 -10.6 0 0 92.69 832.22 L93 832.05" class="st10"/>
		</g>
		<g id="shape37-62" v:mID="37" v:groupContext="shape" v:layerMember="0" transform="translate(377.363,-446.457)">
			<title>Process (circle).37</title>
			<desc>RESTING</desc>
			<v:custProps>
				<v:cp v:nameU="Cost" v:lbl="Cost" v:type="7" v:format="@" v:langID="1033"/>
				<v:cp v:nameU="Duration" v:lbl="Duration" v:type="2" v:langID="1033"/>
				<v:cp v:nameU="Resources" v:lbl="Resources" v:langID="1033"/>
			</v:custProps>
			<v:userDefs>
				<v:ud v:nameU="visVersion" v:val="VT0(15):26"/>
			</v:userDefs>
			<v:textBlock v:margins="rect(2,2,2,2)" v:tabSpace="42.5197"/>
			<v:textRect cx="35.4331" cy="806.457" width="70.87" height="70.8661"/>
			<path d="M0 806.46 A35.4331 35.4331 0 0 1 70.87 806.46 A35.4331 35.4331 0 1 1 0 806.46 Z" class="st1"/>
			<text x="21.41" y="808.86" class="st2" v:langID="2057"><v:paragraph v:horizAlign="1"/><v:tabList/>RESTING</text>		</g>
		<g id="shape38-65" v:mID="38" v:groupContext="shape" transform="translate(-391.643,107.997) rotate(-58.0742)">
			<title>Sheet.38</title>
			<path d="M-0 834.76 A129.469 24.1355 -1.47 0 0 169.52 836.57 L169.88 836.51" class="st10"/>
		</g>
		<g id="shape39-70" v:mID="39" v:groupContext="shape" transform="translate(780.358,1129.79) rotate(152.202)">
			<title>Sheet.39</title>
			<path d="M0 841.89 L194.79 841.89" class="st3"/>
		</g>
		<g id="shape40-75" v:mID="40" v:groupContext="shape" transform="translate(235.095,-359.528)">
			<title>Sheet.40</title>
			<desc>repeatMotion</desc>
			<v:textBlock v:margins="rect(4,4,4,4)" v:tabSpace="42.5197"/>
			<v:textRect cx="53.3228" cy="821.26" width="106.65" height="41.2598"/>
			<rect x="0" y="800.63" width="106.646" height="41.2598" class="st7"/>
			<text x="19.6" y="824.86" class="st8" v:langID="2057"><v:paragraph v:horizAlign="1"/><v:tabList/>repeatMotion</text>		</g>
		<g id="shape41-78" v:mID="41" v:groupContext="shape" transform="translate(263.442,-436.22)">
			<title>Sheet.41</title>
			<desc>reverseMotion</desc>
			<v:textBlock v:margins="rect(4,4,4,4)" v:tabSpace="42.5197"/>
			<v:textRect cx="53.3228" cy="821.26" width="106.65" height="41.2598"/>
			<rect x="0" y="800.63" width="106.646" height="41.2598" class="st7"/>
			<text x="17.84" y="824.86" class="st8" v:langID="2057"><v:paragraph v:horizAlign="1"/><v:tabList/>reverseMotion</text>		</g>
		<g id="shape42-81" v:mID="42" v:groupContext="shape" transform="translate(353.617,-506.253) rotate(-2.32299) scale(-1,1)">
			<title>Sheet.42</title>
			<path d="M-0 841.89 A161.722 92.1068 21.37 0 1 191.59 836.57 L191.92 836.73" class="st10"/>
		</g>
		<g id="shape43-86" v:mID="43" v:groupContext="shape" transform="translate(238.465,-486.614)">
			<title>Sheet.43</title>
			<desc>configMotion “First” flag set</desc>
			<v:textBlock v:margins="rect(4,4,4,4)" v:tabSpace="42.5197"/>
			<v:textRect cx="53.3228" cy="821.26" width="106.65" height="41.2598"/>
			<rect x="0" y="800.63" width="106.646" height="41.2598" class="st7"/>
			<text x="20.61" y="817.66" class="st8" v:langID="2057"><v:paragraph v:horizAlign="1"/><v:tabList/>configMotion<v:newlineChar/><tspan
						x="18.76" dy="1.2em" class="st9">“</tspan><tspan class="st9">First</tspan><tspan class="st9">” </tspan><tspan
						class="st9">flag set</tspan></text>		</g>
		<g id="shape44-93" v:mID="44" v:groupContext="shape" transform="translate(1133.48,628.136) rotate(91.2397)">
			<title>Sheet.44</title>
			<path d="M0 841.89 L80.45 841.89" class="st11"/>
		</g>
		<g id="shape45-98" v:mID="45" v:groupContext="shape" transform="translate(110.906,-114.646)">
			<title>Sheet.45</title>
			<desc>warnCollisionBeta</desc>
			<v:textBlock v:margins="rect(4,4,4,4)" v:tabSpace="42.5197"/>
			<v:textRect cx="53.3228" cy="821.26" width="106.65" height="41.2598"/>
			<rect x="0" y="800.63" width="106.646" height="41.2598" class="st7"/>
			<text x="9.25" y="824.86" class="st12" v:langID="2057"><v:paragraph v:horizAlign="1"/><v:tabList/>warnCollisionBeta</text>		</g>
		<g id="shape47-101" v:mID="47" v:groupContext="shape" transform="translate(153.426,-18.2677)">
			<title>Sheet.47</title>
			<desc>freeBetaCollision</desc>
			<v:textBlock v:margins="rect(4,4,4,4)" v:tabSpace="42.5197"/>
			<v:textRect cx="53.3228" cy="821.26" width="106.65" height="41.2598"/>
			<rect x="0" y="800.63" width="106.646" height="41.2598" class="st7"/>
			<text x="12.26" y="824.86" class="st8" v:langID="2057"><v:paragraph v:horizAlign="1"/><v:tabList/>freeBetaCollision</text>		</g>
		<g id="shape49-104" v:mID="49" v:groupContext="shape" transform="translate(736.476,105.244) rotate(36.8398)">
			<title>Sheet.49</title>
			<path d="M1.03 810.02 L1.06 810.38 A141.982 29.2798 -82.67 0 0 41.73 800.63" class="st13"/>
		</g>
		<g id="shape51-110" v:mID="51" v:groupContext="shape" transform="translate(510.056,-107.717)">
			<title>Sheet.51</title>
			<path d="M0 841.89 A65.1969 28.7008 -180 0 0 65.2 813.19 L65.2 510.24" class="st14"/>
		</g>
		<g id="shape53-113" v:mID="53" v:groupContext="shape" transform="translate(447.694,-489.543)">
			<title>Sheet.53</title>
			<path d="M7.4 836.02 L7.69 835.79 A11.9098 6.51969 0 0 1 11.91 835.37 L84.5 835.37" class="st13"/>
		</g>
		<g id="shape59-118" v:mID="59" v:groupContext="shape" transform="translate(-66.9166,922.677) rotate(-129.007)">
			<title>Sheet.59</title>
			<path d="M0 826.4 A53.6317 50.8554 -121.95 0 0 72.96 826.4" class="st14"/>
		</g>
		<g id="shape62-121" v:mID="62" v:groupContext="shape" transform="translate(451.946,-66.4567)">
			<title>Sheet.62</title>
			<desc>enableBetaCollisionProtection</desc>
			<v:textBlock v:margins="rect(4,4,4,4)" v:tabSpace="42.5197"/>
			<v:textRect cx="53.3228" cy="821.26" width="106.65" height="41.2598"/>
			<rect x="0" y="800.63" width="106.646" height="41.2598" class="st7"/>
			<text x="5.13" y="817.66" class="st12" v:langID="2057"><v:paragraph v:horizAlign="1"/><v:tabList/>enableBetaCollision<tspan
						x="27.73" dy="1.2em" class="st15">Protection</tspan></text>		</g>
		<g id="shape63-125" v:mID="63" v:groupContext="shape" v:layerMember="0" transform="translate(442.024,-678.898)">
			<title>Process (circle).63</title>
			<desc>LOCKED</desc>
			<v:custProps>
				<v:cp v:nameU="Cost" v:lbl="Cost" v:type="7" v:format="@" v:langID="1033"/>
				<v:cp v:nameU="Duration" v:lbl="Duration" v:type="2" v:langID="1033"/>
				<v:cp v:nameU="Resources" v:lbl="Resources" v:langID="1033"/>
			</v:custProps>
			<v:userDefs>
				<v:ud v:nameU="visVersion" v:val="VT0(15):26"/>
			</v:userDefs>
			<v:textBlock v:margins="rect(2,2,2,2)" v:tabSpace="42.5197"/>
			<v:textRect cx="35.4331" cy="806.457" width="70.87" height="70.8661"/>
			<path d="M0 806.46 A35.4331 35.4331 0 0 1 70.87 806.46 A35.4331 35.4331 0 1 1 0 806.46 Z" class="st1"/>
			<text x="22.48" y="808.86" class="st2" v:langID="2057"><v:paragraph v:horizAlign="1"/><v:tabList/>LOCKED</text>		</g>
		<g id="shape64-128" v:mID="64" v:groupContext="shape" transform="translate(368.488,-721.971)">
			<title>Sheet.64</title>
			<path d="M0 841.89 L64.56 841.89" class="st3"/>
		</g>
		<g id="shape65-133" v:mID="65" v:groupContext="shape" transform="translate(343.347,-709.921)">
			<title>Sheet.65</title>
			<desc>lockUnit</desc>
			<v:textBlock v:margins="rect(4,4,4,4)" v:tabSpace="42.5197"/>
			<v:textRect cx="53.3228" cy="821.26" width="106.65" height="41.2598"/>
			<rect x="0" y="800.63" width="106.646" height="41.2598" class="st7"/>
			<text x="33.32" y="824.86" class="st8" v:langID="2057"><v:paragraph v:horizAlign="1"/><v:tabList/>lockUnit</text>		</g>
		<g id="shape67-136" v:mID="67" v:groupContext="shape" transform="translate(348.481,-678.898)">
			<title>Sheet.67</title>
			<desc>unlockUnit</desc>
			<v:textBlock v:margins="rect(4,4,4,4)" v:tabSpace="42.5197"/>
			<v:textRect cx="53.3228" cy="821.26" width="106.65" height="41.2598"/>
			<rect x="0" y="800.63" width="106.646" height="41.2598" class="st7"/>
			<text x="27.15" y="824.86" class="st8" v:langID="2057"><v:paragraph v:horizAlign="1"/><v:tabList/>unlockUnit</text>		</g>
		<g id="shape68-139" v:mID="68" v:groupContext="shape" transform="translate(249.268,-313.071)">
			<title>Sheet.68</title>
			<desc>finishedMotion</desc>
			<v:textBlock v:margins="rect(4,4,4,4)" v:tabSpace="42.5197"/>
			<v:textRect cx="53.3228" cy="821.26" width="106.65" height="41.2598"/>
			<rect x="0" y="800.63" width="106.646" height="41.2598" class="st7"/>
			<text x="16.52" y="824.86" class="st8" v:langID="2057"><v:paragraph v:horizAlign="1"/><v:tabList/>finishedMotion</text>		</g>
		<g id="shape75-142" v:mID="75" v:groupContext="shape" transform="translate(373.993,-251.496)">
			<title>Sheet.75</title>
			<desc>abortMotion (operator command)</desc>
			<v:textBlock v:margins="rect(4,4,4,4)" v:tabSpace="42.5197"/>
			<v:textRect cx="53.3228" cy="821.26" width="106.65" height="41.2598"/>
			<rect x="0" y="800.63" width="106.646" height="41.2598" class="st7"/>
			<text x="22.25" y="810.46" class="st8" v:langID="2057"><v:paragraph v:horizAlign="1"/><v:tabList/>abortMotion<v:newlineChar/><tspan
						x="30.19" dy="1.2em" class="st15">(</tspan>operator <tspan x="27.18" dy="1.2em" class="st15">command</tspan>)</text>		</g>
		<g id="shape79-147" v:mID="79" v:groupContext="shape" transform="translate(195.946,-653.228)">
			<title>Sheet.79</title>
			<desc>findDatum</desc>
			<v:textBlock v:margins="rect(4,4,4,4)" v:tabSpace="42.5197"/>
			<v:textRect cx="53.3228" cy="821.26" width="106.65" height="41.2598"/>
			<rect x="0" y="800.63" width="106.646" height="41.2598" class="st7"/>
			<text x="27.33" y="824.86" class="st8" v:langID="2057"><v:paragraph v:horizAlign="1"/><v:tabList/>findDatum</text>		</g>
		<g id="shape81-150" v:mID="81" v:groupContext="shape" transform="translate(-15.2545,-384.735) rotate(-27.7978) scale(-1,1)">
			<title>Sheet.81</title>
			<path d="M-0 841.89 A160.879 81.1626 16.51 0 1 193.49 837.21 L193.82 837.35" class="st10"/>
		</g>
		<g id="shape89-155" v:mID="89" v:groupContext="shape" transform="translate(946.607,-311.005) rotate(40.6508) scale(-1,1)">
			<title>Sheet.89</title>
			<path d="M0 841.89 L248.61 841.89" class="st5"/>
		</g>
		<g id="shape90-160" v:mID="90" v:groupContext="shape" v:layerMember="0" transform="translate(146.686,-678.898)">
			<title>Process (circle).90</title>
			<desc>DATUM_SEARCH</desc>
			<v:custProps>
				<v:cp v:nameU="Cost" v:lbl="Cost" v:type="7" v:format="@" v:langID="1033"/>
				<v:cp v:nameU="Duration" v:lbl="Duration" v:type="2" v:langID="1033"/>
				<v:cp v:nameU="Resources" v:lbl="Resources" v:langID="1033"/>
			</v:custProps>
			<v:userDefs>
				<v:ud v:nameU="visVersion" v:val="VT0(15):26"/>
			</v:userDefs>
			<v:textBlock v:margins="rect(2,2,2,2)" v:tabSpace="42.5197"/>
			<v:textRect cx="35.4331" cy="806.457" width="70.87" height="70.8661"/>
			<path d="M0 806.46 A35.4331 35.4331 0 0 1 70.87 806.46 A35.4331 35.4331 0 1 1 0 806.46 Z" class="st1"/>
			<text x="7.83" y="808.86" class="st2" v:langID="2057"><v:paragraph v:horizAlign="1"/><v:tabList/>DATUM_SEARCH</text>		</g>
		<g id="shape91-163" v:mID="91" v:groupContext="shape" transform="translate(986.701,410.834) rotate(107.121)">
			<title>Sheet.91</title>
			<path d="M0 841.89 L22.05 841.89" class="st5"/>
		</g>
		<g id="shape94-168" v:mID="94" v:groupContext="shape" transform="translate(425.19,969.28) rotate(-178.854)">
			<title>Sheet.94</title>
			<path d="M0 841.89 L61.07 841.89" class="st3"/>
		</g>
		<g id="shape95-173" v:mID="95" v:groupContext="shape" transform="translate(195.646,-739.307) rotate(-0.784583)">
			<title>Sheet.95</title>
			<path d="M-0 841.89 A81.6553 42.5284 17.57 0 1 94.47 838.07 L94.8 838.21" class="st16"/>
		</g>
		<g id="shape96-179" v:mID="96" v:groupContext="shape" transform="translate(195.946,-722.835)">
			<title>Sheet.96</title>
			<desc>resetFPU</desc>
			<v:textBlock v:margins="rect(4,4,4,4)" v:tabSpace="42.5197"/>
			<v:textRect cx="53.3228" cy="821.26" width="106.65" height="41.2598"/>
			<rect x="0" y="800.63" width="106.646" height="41.2598" class="st7"/>
			<text x="31.48" y="824.86" class="st8" v:langID="2057"><v:paragraph v:horizAlign="1"/><v:tabList/>resetFPU</text>		</g>
		<g id="shape97-182" v:mID="97" v:groupContext="shape" transform="translate(1258.26,523.912) rotate(-77.0291) scale(1,-1)">
			<title>Sheet.97</title>
			<path d="M-0 841.89 A135.274 34.3871 6.32 0 1 166.84 839.95 L167.19 840.02" class="st16"/>
		</g>
		<g id="shape98-187" v:mID="98" v:groupContext="shape" transform="translate(447.694,-524.409)">
			<title>Sheet.98</title>
			<desc>lockUnit</desc>
			<v:textBlock v:margins="rect(4,4,4,4)" v:tabSpace="42.5197"/>
			<v:textRect cx="53.3228" cy="821.26" width="106.65" height="41.2598"/>
			<rect x="0" y="800.63" width="106.646" height="41.2598" class="st7"/>
			<text x="33.32" y="824.86" class="st8" v:langID="2057"><v:paragraph v:horizAlign="1"/><v:tabList/>lockUnit</text>		</g>
		<g id="shape99-190" v:mID="99" v:groupContext="shape" v:layerMember="0" transform="translate(470.371,-257.953)">
			<title>Process (circle).99</title>
			<desc>ABORTED</desc>
			<v:custProps>
				<v:cp v:nameU="Cost" v:lbl="Cost" v:type="7" v:format="@" v:langID="1033"/>
				<v:cp v:nameU="Duration" v:lbl="Duration" v:type="2" v:langID="1033"/>
				<v:cp v:nameU="Resources" v:lbl="Resources" v:langID="1033"/>
			</v:custProps>
			<v:userDefs>
				<v:ud v:nameU="visVersion" v:val="VT0(15):26"/>
			</v:userDefs>
			<v:textBlock v:margins="rect(2,2,2,2)" v:tabSpace="42.5197"/>
			<v:textRect cx="35.4331" cy="806.457" width="70.87" height="70.8661"/>
			<path d="M0 806.46 A35.4331 35.4331 0 0 1 70.87 806.46 A35.4331 35.4331 0 1 1 0 806.46 Z" class="st1"/>
			<text x="19.76" y="808.86" class="st2" v:langID="2057"><v:paragraph v:horizAlign="1"/><v:tabList/>ABORTED</text>		</g>
		<g id="shape100-193" v:mID="100" v:groupContext="shape" transform="translate(1061.03,671.536) rotate(95.1789)">
			<title>Sheet.100</title>
			<path d="M-0 797.55 A152.277 96.0197 -81.93 0 0 130.61 805.32 L130.83 805.03" class="st16"/>
		</g>
		<g id="shape101-198" v:mID="101" v:groupContext="shape" transform="translate(-268.759,804.409) rotate(-110.613)">
			<title>Sheet.101</title>
			<path d="M-0 827.54 A116.87 48.4714 -3.82 0 0 154.26 830.73 L154.6 830.61" class="st16"/>
		</g>
		<g id="shape102-203" v:mID="102" v:groupContext="shape" transform="translate(419.347,-340.157)">
			<title>Sheet.102</title>
			<desc>enableMove</desc>
			<v:textBlock v:margins="rect(4,4,4,4)" v:tabSpace="42.5197"/>
			<v:textRect cx="53.3228" cy="821.26" width="106.65" height="41.2598"/>
			<rect x="0" y="800.63" width="106.646" height="41.2598" class="st7"/>
			<text x="22.81" y="824.86" class="st12" v:langID="2057"><v:paragraph v:horizAlign="1"/><v:tabList/>enableMove</text>		</g>
		<g id="shape103-206" v:mID="103" v:groupContext="shape" transform="translate(280.985,-191.969)">
			<title>Sheet.103</title>
			<desc>warnLimitAlpha</desc>
			<v:textBlock v:margins="rect(4,4,4,4)" v:tabSpace="42.5197"/>
			<v:textRect cx="53.3228" cy="821.26" width="106.65" height="41.2598"/>
			<rect x="0" y="800.63" width="106.646" height="41.2598" class="st7"/>
			<text x="14.67" y="824.86" class="st8" v:langID="2057"><v:paragraph v:horizAlign="1"/><v:tabList/>warnLimitAlpha</text>		</g>
		<g id="shape105-209" v:mID="105" v:groupContext="shape" transform="translate(187.444,-216.69) rotate(-9.00823)">
			<title>Sheet.105</title>
			<path d="M0 826.43 A118.629 52.2255 -4.17 0 0 156.74 829.79 L157.08 829.67" class="st16"/>
		</g>
		<g id="shape108-214" v:mID="108" v:groupContext="shape" transform="translate(322.417,-121.643)">
			<title>Sheet.108</title>
			<path d="M0 841.89 L233.72 841.89" class="st11"/>
		</g>
		<g id="shape109-219" v:mID="109" v:groupContext="shape" transform="translate(312.166,-42.5197)">
			<title>Sheet.109</title>
			<desc>freeAlphaLimitBreach</desc>
			<v:textBlock v:margins="rect(4,4,4,4)" v:tabSpace="42.5197"/>
			<v:textRect cx="64.6614" cy="821.26" width="129.33" height="41.2598"/>
			<rect x="0" y="800.63" width="129.323" height="41.2598" class="st7"/>
			<text x="12.06" y="824.86" class="st8" v:langID="2057"><v:paragraph v:horizAlign="1"/><v:tabList/>freeAlphaLimitBreach</text>		</g>
		<g id="shape110-222" v:mID="110" v:groupContext="shape" transform="translate(-380.157,27.6231) rotate(-81.462) scale(-1,1)">
			<title>Sheet.110</title>
			<path d="M0 841.89 L166.73 841.89" class="st11"/>
		</g>
		<g id="shape111-227" v:mID="111" v:groupContext="shape" transform="translate(362.654,-602.992)">
			<title>Sheet.111</title>
			<desc>unlockUnit (if ‘initialized’ flag set)</desc>
			<v:textBlock v:margins="rect(4,4,4,4)" v:tabSpace="42.5197"/>
			<v:textRect cx="53.3228" cy="821.26" width="106.65" height="41.2598"/>
			<rect x="0" y="800.63" width="106.646" height="41.2598" class="st7"/>
			<text x="27.15" y="810.46" class="st8" v:langID="2057"><v:paragraph v:horizAlign="1"/><v:tabList/>unlockUnit<v:newlineChar/><tspan
						x="20.56" dy="1.2em" class="st15">(</tspan>if ‘initialized’ <v:newlineChar/><tspan x="33.56" dy="1.2em"
						class="st15">flag set</tspan>)</text>		</g>
		<g id="shape112-232" v:mID="112" v:groupContext="shape" transform="translate(-20.777,21.1391) rotate(-22.5)">
			<title>Sheet.112</title>
			<path d="M0.99 821.07 L1.03 821.42 A103.815 19.0588 -83.55 0 0 27.12 811.67" class="st13"/>
		</g>
		<g id="shape113-237" v:mID="113" v:groupContext="shape" transform="translate(318.811,-106.274) rotate(-0.439451)">
			<title>Sheet.113</title>
			<path d="M0 841.89 L174.98 841.89" class="st11"/>
		</g>
		<g id="shape114-242" v:mID="114" v:groupContext="shape" transform="translate(-315.834,-488.389) rotate(-30)">
			<title>Sheet.114</title>
			<desc>finishedDatum</desc>
			<v:textBlock v:margins="rect(4,4,4,4)" v:tabSpace="42.5197"/>
			<v:textRect cx="53.3228" cy="821.26" width="106.65" height="41.2598"/>
			<rect x="0" y="800.63" width="106.646" height="41.2598" class="st7"/>
			<text x="17.67" y="824.86" class="st8" v:langID="2057"><v:paragraph v:horizAlign="1"/><v:tabList/>finishedDatum</text>		</g>
		<g id="shape115-245" v:mID="115" v:groupContext="shape" transform="translate(351.316,-132.441)">
			<title>Sheet.115</title>
			<desc>enableAlphaLimitProtection</desc>
			<v:textBlock v:margins="rect(4,4,4,4)" v:tabSpace="42.5197"/>
			<v:textRect cx="48.189" cy="821.26" width="96.38" height="41.2598"/>
			<rect x="0" y="800.63" width="96.378" height="41.2598" class="st7"/>
			<text x="5.56" y="817.66" class="st12" v:langID="2057"><v:paragraph v:horizAlign="1"/><v:tabList/>enableAlphaLimit<tspan
						x="22.6" dy="1.2em" class="st15">Protection</tspan></text>		</g>
		<g id="shape116-249" v:mID="116" v:groupContext="shape" v:layerMember="0" transform="translate(305.961,-767.197)">
			<title>Merge</title>
			<desc>start</desc>
			<v:custProps>
				<v:cp v:nameU="Cost" v:lbl="Cost" v:type="7" v:format="@" v:langID="1033"/>
				<v:cp v:nameU="Duration" v:lbl="Duration" v:type="2" v:langID="1033"/>
				<v:cp v:nameU="Resources" v:lbl="Resources" v:langID="1033"/>
			</v:custProps>
			<v:userDefs>
				<v:ud v:nameU="visVersion" v:val="VT0(15):26"/>
			</v:userDefs>
			<v:textBlock v:margins="rect(2,2,2,2)" v:tabSpace="42.5197"/>
			<v:textRect cx="28.3465" cy="799.37" width="42.52" height="28.3465"/>
			<path d="M0 785.2 L56.69 785.2 L28.35 841.89 L0 785.2 Z" class="st1"/>
			<text x="16.7" y="802.97" class="st17" v:langID="2057"><v:paragraph v:horizAlign="1"/><v:tabList/>start</text>		</g>
		<g id="shape118-252" v:mID="118" v:groupContext="shape" transform="translate(1091.02,-195.568) rotate(64.6929)">
			<title>Sheet.118</title>
			<path d="M0 835.48 A128.639 21.6907 -1.32 0 0 170.58 836.84 L170.94 836.79" class="st16"/>
		</g>
		<g id="shape119-257" v:mID="119" v:groupContext="shape" transform="translate(259.284,-631.339)">
			<title>Sheet.119</title>
			<desc>enableMove</desc>
			<v:textBlock v:margins="rect(4,4,4,4)" v:tabSpace="42.5197"/>
			<v:textRect cx="53.3228" cy="821.26" width="106.65" height="41.2598"/>
			<rect x="0" y="800.63" width="106.646" height="41.2598" class="st7"/>
			<text x="22.81" y="824.86" class="st12" v:langID="2057"><v:paragraph v:horizAlign="1"/><v:tabList/>enableMove</text>		</g>
		<g id="shape121-260" v:mID="121" v:groupContext="shape" transform="translate(849.33,-48.1021) rotate(75.9638)">
			<title>Sheet.121</title>
			<path d="M-0 724.27 A439.201 381.6 -35.12 0 0 582.68 730.55 L582.96 730.32" class="st16"/>
		</g>
		<g id="shape124-265" v:mID="124" v:groupContext="shape" transform="translate(824.676,7.44893) rotate(79.9539)">
			<title>Sheet.124</title>
			<path d="M-0 688.55 A533.196 428.734 -71.42 0 0 610.7 695.62 L610.95 695.36" class="st16"/>
		</g>
		<g id="shape192-270" v:mID="192" v:groupContext="shape" transform="translate(335.725,899.74) rotate(180)">
			<title>Sheet.192</title>
			<path d="M4.05 817.57 L4.21 817.89 A139.249 79.6288 -43.77 0 0 139.78 809.03" class="st13"/>
		</g>
		<g id="shape193-275" v:mID="193" v:groupContext="shape" transform="translate(192.576,-773.071)">
			<title>Sheet.193</title>
			<desc>abortMotion</desc>
			<v:textBlock v:margins="rect(4,4,4,4)" v:tabSpace="42.5197"/>
			<v:textRect cx="53.3228" cy="821.26" width="106.65" height="41.2598"/>
			<rect x="0" y="800.63" width="106.646" height="41.2598" class="st7"/>
			<text x="22.25" y="824.86" class="st8" v:langID="2057"><v:paragraph v:horizAlign="1"/><v:tabList/>abortMotion</text>		</g>
		<g id="shape194-278" v:mID="194" v:groupContext="shape" transform="translate(355.221,-744.724)">
			<title>Sheet.194</title>
			<desc>resetFPU</desc>
			<v:textBlock v:margins="rect(4,4,4,4)" v:tabSpace="42.5197"/>
			<v:textRect cx="53.3228" cy="821.26" width="106.65" height="41.2598"/>
			<rect x="0" y="800.63" width="106.646" height="41.2598" class="st7"/>
			<text x="31.48" y="824.86" class="st8" v:langID="2057"><v:paragraph v:horizAlign="1"/><v:tabList/>resetFPU</text>		</g>
		<g id="shape195-281" v:mID="195" v:groupContext="shape"
				transform="translate(465.424,-739.285) rotate(0.886248) scale(-1,1)">
			<title>Sheet.195</title>
			<path d="M0 841.89 A74.4414 45.5125 25.91 0 1 82.94 837.35 L83.26 837.51" class="st16"/>
		</g>
		<g id="shape196-286" v:mID="196" v:groupContext="shape" transform="translate(61.4173,-418.11)">
			<title>Sheet.196</title>
			<desc>configMotion “First” flag set</desc>
			<v:textBlock v:margins="rect(4,4,4,4)" v:tabSpace="42.5197"/>
			<v:textRect cx="53.3228" cy="821.26" width="106.65" height="41.2598"/>
			<rect x="0" y="800.63" width="106.646" height="41.2598" class="st7"/>
			<text x="20.61" y="817.66" class="st8" v:langID="2057"><v:paragraph v:horizAlign="1"/><v:tabList/>configMotion<v:newlineChar/><tspan
						x="18.76" dy="1.2em" class="st9">“</tspan><tspan class="st9">First</tspan><tspan class="st9">” </tspan><tspan
						class="st9">flag set</tspan></text>		</g>
		<g id="shape197-293" v:mID="197" v:groupContext="shape" transform="translate(934.779,170.805) rotate(76.3002)">
			<title>Sheet.197</title>
			<path d="M8.12 838.32 L8.43 838.5 A75.2223 24.1983 -12.48 0 0 89.77 833.49" class="st13"/>
		</g>
		<g id="shape198-298" v:mID="198" v:groupContext="shape" transform="translate(-41.1227,-545.517) rotate(-17.754)">
			<title>Sheet.198</title>
			<path d="M-0 815.37 A183.926 89.4971 -4.87 0 0 248.08 819.15 L248.41 819.01" class="st16"/>
		</g>
	</g>
</svg>
